<?xml version="1.0" encoding="utf-8"?>
<!-- Generator: Adobe Illustrator 16.0.0, SVG Export Plug-In . SVG Version: 6.00 Build 0)  -->
<!DOCTYPE svg PUBLIC "-//W3C//DTD SVG 1.1//EN" "http://www.w3.org/Graphics/SVG/1.1/DTD/svg11.dtd">
<svg version="1.1" id="Layer_1" xmlns="http://www.w3.org/2000/svg" xmlns:xlink="http://www.w3.org/1999/xlink" x="0px" y="0px"
	 width="2476.134px" height="793.653px" viewBox="-1735.282 -1047.996 2476.134 793.653"
	 enable-background="new -1735.282 -1047.996 2476.134 793.653" xml:space="preserve">
<g>
	<path d="M-1520.996-387.285l-67.462,132.939h-146.824l396.825-793.651l264.882,529.762h-148.81l-116.073-233.141l-117.06,233.143
		L-1520.996-387.285z M-941.632-254.345h-147.818l-65.479-131.941h146.823L-941.632-254.345z"/>
	<path d="M-843.444-584.703c-64.485,0-119.048-22.816-163.691-67.463c-44.643-45.631-67.457-100.197-67.457-164.68
		c0-63.496,22.814-117.061,67.457-162.698c44.644-45.641,99.206-68.455,163.691-68.455v132.938c-13.889,0-26.785,1.982-38.694,6.944
		c-12.893,4.961-22.816,11.904-32.738,21.824c-8.928,8.926-15.872,19.842-20.832,31.744c-4.96,11.904-6.944,24.801-6.944,37.7
		c0,27.781,8.929,50.594,27.777,70.434c19.843,19.844,42.66,29.764,71.429,29.764h197.417c64.483,0,119.046,22.822,163.69,67.461
		c45.636,45.635,68.459,100.199,68.459,163.693c0,63.492-22.823,118.059-68.459,163.691
		c-44.637,44.643-99.199,67.463-163.684,67.463v-132.941c13.889,0,26.789-1.98,38.691-6.943c12.9-4.959,23.813-11.902,32.742-20.832
		c8.926-8.926,15.872-18.848,20.832-31.74c4.961-11.906,7.939-24.807,7.939-38.693c0-26.785-10.919-49.604-29.764-69.447
		c-19.84-19.844-42.658-29.764-70.438-29.764h-197.424V-584.703z"/>
	<path d="M-87.496-539.066L75.199-254.343H-76.583l-230.16-397.822l118.061,0.992c35.717,0,66.465-12.896,92.256-38.688
		c26.792-25.793,39.682-57.545,39.682-94.248c0-35.717-12.89-66.469-39.682-92.26c-25.791-25.797-56.539-38.691-92.256-38.691
		h-264.883l-14.881-14.88l-68.455-118.055h348.219c72.414,0,134.922,25.792,186.503,77.375
		c51.589,52.585,77.379,114.091,77.379,186.51c0,55.557-14.88,105.16-46.624,149.801C-2.18-589.664-40.869-557.916-87.496-539.066z"
		/>
	<path d="M578.155-539.066l162.696,284.721H589.067l-230.159-397.82l118.056,0.992c35.717,0,66.467-12.896,92.262-38.688
		c26.784-25.793,39.684-57.545,39.684-94.248c0-35.717-12.899-66.469-39.684-92.26c-25.795-25.797-56.545-38.691-92.262-38.691
		H212.085l-14.883-14.88l-68.45-118.057h348.212c72.42,0,134.92,25.792,186.507,77.375c51.587,52.584,77.381,114.091,77.381,186.51
		c0,55.555-14.884,105.158-46.624,149.801C663.469-589.664,624.783-557.916,578.155-539.066z"/>
</g>
<text transform="matrix(1 0 0 1 303.9927 1016.7563)" display="none" font-family="'MavenProBold'" font-size="105">Innovative Software Development</text>
</svg>
