<?xml version="1.0" encoding="utf-8"?>
<!-- Generator: Adobe Illustrator 16.0.0, SVG Export Plug-In . SVG Version: 6.00 Build 0)  -->
<!DOCTYPE svg PUBLIC "-//W3C//DTD SVG 1.1//EN" "http://www.w3.org/Graphics/SVG/1.1/DTD/svg11.dtd">
<svg version="1.1" id="Layer_1" xmlns="http://www.w3.org/2000/svg" xmlns:xlink="http://www.w3.org/1999/xlink" x="0px" y="0px"
	 width="2880px" height="2848px" viewBox="560 192 2880 2848" enable-background="new 560 192 2880 2848" xml:space="preserve">
<title>Full - Rounded - Dcrease Indent</title>
<desc>Created with Sketch.</desc>
<g>
	<path d="M3296,2752c79.529,0,144,64.471,144,144s-64.471,144-144,144H704c-79.529,0-144-64.471-144-144s64.471-144,144-144H3296z
		 M3296,2112c79.529,0,144,64.471,144,144s-64.471,144-144,144H2144c-79.529,0-144-64.471-144-144s64.471-144,144-144H3296z
		 M1213.117,1110.977c56.235,56.235,56.235,147.411,0,203.646l-161.501,161.5l452.384-0.029c79.529,0,144,64.471,144,144
		s-64.471,144-144,144l-452.384,0.029l161.501,161.44c56.235,56.235,56.235,147.411,0,203.647
		c-56.236,56.234-147.412,56.234-203.646,0l-407.294-407.294c-56.235-56.235-56.235-147.411,0-203.646l407.294-407.294
		C1065.705,1054.741,1156.881,1054.741,1213.117,1110.977z M3296,1472c79.529,0,144,64.471,144,144s-64.471,144-144,144H2144
		c-79.529,0-144-64.471-144-144s64.471-144,144-144H3296z M3296,832c79.529,0,144,64.471,144,144s-64.471,144-144,144H2144
		c-79.529,0-144-64.471-144-144s64.471-144,144-144H3296z M3296,192c79.529,0,144,64.471,144,144s-64.471,144-144,144H704
		c-79.529,0-144-64.471-144-144s64.471-144,144-144H3296z"/>
</g>
</svg>
